<?xml version="1.0" encoding="utf-8"?>
<!-- Generator: Adobe Illustrator 26.5.0, SVG Export Plug-In . SVG Version: 6.00 Build 0)  -->
<svg version="1.1" id="Layer_1" xmlns="http://www.w3.org/2000/svg" xmlns:xlink="http://www.w3.org/1999/xlink" x="0px" y="0px"
	 viewBox="0 0 167.62 130.6" style="enable-background:new 0 0 167.62 130.6;" xml:space="preserve">
<g>
	<path d="M48.28,56.2c-0.65-2.86,0.06-6.06,0.51-9.31c0.24-1.75,0.92-3.3,1.44-4.88c1.37-4.12,3.45-7.93,6.42-11.17
		c1.94-2.12,4.36-3.68,6.73-5.26c4.51-3.02,9.6-4.71,14.88-5.6c2.91-0.49,5.93-0.59,8.94-0.25c2.21,0.25,4.44,0.23,6.64,0.7
		c3.38,0.72,6.59,1.86,9.76,3.22c2.54,1.08,4.79,2.51,6.94,4.16c0.27,0.2,0.56,0.38,0.79,0.63c3.64,3.83,6.67,8.09,8.68,12.99
		c0.68,1.65,1.1,3.41,1.2,5.26c0.12,2.55,0.92,5.05,0.71,7.64c-0.27,3.34-0.43,6.69-1.03,9.99c-0.18,1-0.8,1.53-1.77,1.73
		c-2.4,0.51-4.83,0.74-7.28,0.53c-1.1-0.1-2.17-0.07-3.26,0.01c-2.48,0.19-4.97,0.25-7.45,0.41c-1.09,0.07-2.14,0.4-3.25,0.39
		c-6.85-0.03-13.7-0.01-20.55-0.02c-4.58,0-9.12-0.69-13.68-0.91c-2.28-0.11-4.62,0.05-6.93,0.21c-1.91,0.13-3.74-0.48-5.64-0.42
		c-0.46,0.01-0.95-0.29-1.05-0.79C49.41,62.54,47.95,59.76,48.28,56.2z M82.8,54.42c-0.3-2.82,0.46-5.51,0.29-8.3
		c-0.12-1.96-0.37-3.5-2.17-4.48c-0.26-0.14-0.41-0.38-0.33-0.61c0.34-1.02-0.25-1.77-0.82-2.39c-0.87-0.96-1.07-2.39-2.26-3.1
		c-3.93-2.36-8.21-4.05-12.23-6.23c-0.35-0.19-0.69-0.16-0.96,0.03c-1.08,0.77-2.39,1.18-3.26,2.3c-0.74,0.96-1.11,1.9-0.61,3.02
		c1.12,2.48,1.32,5.76,2.72,8.18c1.4,2.42,3.71,3.35,5.3,2.6c0.27-0.42-0.02-0.62-0.17-0.84c-0.89-1.28-1.74-2.58-2.4-3.99
		c-0.8-1.7-1.95-3.26-2.13-5.22c-0.07-0.79,0.26-1.29,0.94-1.61c0.55-0.26,1.2-0.54,1.63,0.03c0.73,0.96,0.11,2.32,0.29,3.51
		c0.44,2.83,4.11,4.27,5.44,6.56c0.14,0.25,0.35,0.57,0.68,0.44c0.38-0.15,0.21-0.51,0.11-0.77c-0.67-1.72,0-3.65-1.19-5.13
		c-0.94-1.16-2.57-2.42-3.15-3.77c-0.46-1.07,0.01-1.8,1.16-1.67c1.51,0.17,2.69,1.04,3.44,2.28c1.06,1.75,2.37,3.37,3.11,5.32
		c0.83,2.19,1.8,4.35,1.26,6.79c-0.17,0.74-0.13,1.42,0.36,2.03c0.95,1.17,1.86,2.39,2.88,3.5C81.28,53.48,81.84,54.15,82.8,54.42z
		 M87.73,56.84c-0.17,0.86-0.08,1.57-0.01,2.28c0.07,0.71,0.36,0.84,1,0.54c0.82-0.39,1.44-1,2.14-1.54
		c1.51-1.16,2.97-2.42,4.63-3.32c1.7-0.92,3.28-2.01,4.96-2.96c0.82-0.46,1.67-1.03,2.16-1.9c2.66-4.76,5.74-9.29,8.25-14.15
		c0.66-1.27,0.33-1.9-0.45-2.69c-0.84-0.85-1.01-0.79-1.34,0.35c-1.03,3.48-2.58,6.63-5.62,8.86c-1.73,1.27-3.63,2.12-5.76,1.73
		c-1.92-0.36-3.07,0.28-4.03,1.86c-1.19,1.96-2.67,3.75-3.79,5.75C88.93,53.32,86.75,54.55,87.73,56.84z M57.01,34.74
		c-0.52,1.17-2.69,3.92-3.3,4.9c-1.06,1.67,0.45,3.38,1.94,4.69c1.48,1.3,3.09,2.49,4.42,3.93c1.43,1.55,3.2,2.72,4.56,4.32
		c1.56,1.84,3.65,3.07,5.38,4.7c1.3,1.22,3.1,1.83,4.24,3.12c1.88,2.12,4.26,2.3,6.76,2.44c0.82,0.05,1.05-0.38,1.02-1.07
		c-0.09-2.13-1.16-3.73-2.84-4.93c-1.29-0.93-2.71-1.69-3.93-2.7c-1.61-1.34-3.26-2.43-5.46-2.48c-0.66-0.01-1.3-0.31-1.87-0.72
		c-2.93-2.12-5.17-4.89-7.33-7.72C59.18,41.33,58.77,36.67,57.01,34.74z M92.27,62.74c3.78,0.38,7.46,0.38,11.14,0.08
		c1.32-0.1,2.66-0.02,3.95-0.24c1.18-0.2,2.32-0.31,3.5-0.2c1.81,0.16,3.6,0,5.36-0.44c0.86-0.21,1.31-0.73,1.31-1.6
		c0.01-1.47,0-2.94,0-4.41c0-0.6-0.25-0.83-0.87-0.7c-2.97,0.66-6.01,1.02-8.96,1.81c-1.17,0.31-2.38,0.5-3.58,0.66
		C99.76,58.32,95.69,59.64,92.27,62.74z M86.98,47.01c1.62-1,2.77-2.14,3.32-3.37c0.43-0.95,1.12-1.31,1.71-1.9
		c0.71-0.7,0.99-1.48,1-2.48c0.02-1.79-0.27-3.61,0.51-5.35c1.23-2.72,2.2-5.6,5.21-7.01c0.61-0.29,0.37-0.63-0.14-0.85
		c-0.82-0.35-1.7-0.46-2.55-0.66c-1.01-0.24-1.58,0.04-2.06,0.9c-0.82,1.46-1.77,0.68-2.77,2.02c-1.37,1.81-2.17,6.1-3.21,8.11
		c-0.5,0.95-1.02,1.95-1.02,3.09C86.98,41.94,86.98,44.36,86.98,47.01z M66.19,62.71c1.12-0.09,1.96-0.15,2.8-0.22
		c0.26-0.02,0.51-0.1,0.57-0.4c0.06-0.28-0.08-0.49-0.29-0.65c-1.85-1.34-3.78-2.59-6.05-3.06c-3.5-0.72-6.99-1.45-10.33-2.71
		c-0.73-0.27-2.34-0.66-2.12-0.11c0.38,0.97,0.35,2.58,0.51,3.57c0.32,1.89,2.83,2.98,4.76,3.14c0.77,0.07,1.65-0.08,2.3,0.06
		C61.05,62.94,63.8,62.1,66.19,62.71z M103.76,54.05c1.71,0.04,3.29,0.69,4.67,0.37c2.5-0.57,5.75-1.24,8.34-1.4
		c0.98-0.06,0.05-1.99-0.01-2.74c-0.09-1.04-0.23-2.08-0.4-3.1c-0.09-0.57,0.01-1.38-0.49-1.62c-0.49-0.23-0.84,0.54-1.3,0.82
		C110.9,48.65,107.33,51.08,103.76,54.05z M82.76,36.69c0.53-2.58,0.01-5.06,0.35-7.51c0.2-1.45,0.19-2.93,0.26-4.39
		c0.02-0.41,0.06-1-0.49-0.99c-0.75,0.01-1.53-0.3-2.23,0.04c-0.72,0.35-0.2,1.07-0.31,1.6c-0.03,0.12-0.07,0.25-0.08,0.37
		c-0.15,2.81-0.27,5.63,0.89,8.28C81.54,34.96,82.16,35.73,82.76,36.69z M61.56,54.82c-1.53-1.75-2.9-4.69-4.72-6.02
		c-0.89-0.65-1.79-0.2-2.71-0.79c-0.4-0.26-0.92-0.77-1.34-0.3c-0.41,0.46-0.39,1.16-0.15,1.78c0.07,0.18-1.17-1.38,0.33,0.5
		c-0.39,1.8-1.7,3.15-0.06,3.79c0.47,0.18,2.29,0.43,2.75,0.65C57.52,55.3,59.51,54.52,61.56,54.82z M87.03,31.15
		c1.21-2.03,2.61-3.89,3.87-5.84c0.22-0.34,0.34-0.8-0.16-0.93c-1-0.25-2.03-0.46-3.06-0.52c-0.71-0.04-0.94,0.52-0.94,1.21
		C86.73,27.09,87.27,29.08,87.03,31.15z M68.58,27.39c1.7,1.38,4.03,2.42,6.7,2.96c-0.41-0.52-0.66-1.04-0.91-1.56
		c-1.71-3.58-2.23-3.71-5.67-1.57C68.68,27.23,68.66,27.28,68.58,27.39z M109.31,45.75c0.08,0.03,1.82,0.7,1.91,0.73
		c1.38-0.99,1.47-1.72,2.86-2.69c1.31-0.91,1.04-2.1,0.38-3.45c-0.17-0.34-0.37-0.66-0.57-0.98c-0.34-0.54-1.3-1.96-1.73-1.17
		c-0.55,1.02-1,1.79-1.67,2.75C109.76,41.96,109.87,44.6,109.31,45.75z"/>
</g>
<g>
	<path d="M61.06,72.65c0.01,0.11,0.01,0.22-0.08,0.31l-0.08,0.08c-0.14,0.18-0.35,0.24-0.56,0.27c-0.1,0.01-0.2,0.01-0.29,0.01
		c-0.29-0.01-0.59-0.04-0.88,0.06c-0.27,0.01-0.53,0.1-0.8,0.08c-0.1,0-0.15,0.06-0.18,0.15c-0.04,0.17-0.07,0.34-0.07,0.5
		c-0.01,0.35-0.01,0.7-0.01,1.05c0.01,0.21,0,0.42-0.04,0.63c-0.06,0.27-0.06,0.53,0,0.8c0.03,0.13,0.03,0.25,0.01,0.38
		c-0.06,0.34-0.07,0.67-0.06,1.01c0,0.32-0.01,0.64-0.01,0.97c0,0.1-0.01,0.2-0.01,0.29c0,0.49,0.01,0.98,0.01,1.47
		c0,0.15-0.01,0.31-0.01,0.46c0,0.11-0.03,0.22-0.08,0.32c-0.06,0.11-0.18,0.18-0.31,0.18c-0.06,0-0.11-0.03-0.17-0.03
		c-0.21,0.03-0.31-0.11-0.36-0.28c-0.04-0.15-0.07-0.31-0.08-0.46c-0.01-0.27-0.01-0.53-0.01-0.8v-0.88c-0.01-0.31,0-0.62,0.04-0.92
		c0.01-0.11,0.01-0.22,0.01-0.34c0-0.38,0.01-0.76,0.06-1.13c0.01-0.07,0.01-0.14,0-0.21c-0.04-0.35-0.04-0.7,0.01-1.05
		c0.04-0.29,0.06-0.59,0.03-0.88c-0.03-0.29-0.01-0.59,0.04-0.88c0.01-0.06,0.01-0.11,0.01-0.17c0-0.04-0.01-0.08-0.04-0.11
		c-0.03-0.03-0.07-0.06-0.11-0.06c-0.28-0.03-0.56-0.08-0.84-0.08c-0.07,0-0.14-0.01-0.21-0.01c-0.1,0-0.2,0.01-0.29,0.03
		c-0.1,0.03-0.2,0.03-0.29,0c-0.03-0.01-0.06-0.01-0.08-0.01c-0.27,0.07-0.53-0.03-0.8-0.04c-0.17-0.01-0.34-0.04-0.5-0.08
		c-0.07-0.01-0.13-0.06-0.17-0.11c-0.1-0.1-0.17-0.22-0.2-0.36c-0.01-0.07-0.01-0.14,0.01-0.21c0.06-0.13,0.14-0.24,0.25-0.32
		c0.03-0.03,0.07-0.04,0.11-0.04c0.07-0.01,0.14-0.01,0.21-0.01l1.09-0.04v-0.01h0.42c0.62,0.01,1.23-0.03,1.85-0.11
		c0.08-0.01,0.17-0.01,0.25,0c0.14,0.03,0.28,0.03,0.42,0.01c0.24-0.03,0.48-0.04,0.71-0.06c0.36-0.04,0.73-0.03,1.09,0.04
		l0.25,0.03c0.08,0.01,0.17,0.04,0.25,0.07c0.22,0.06,0.38,0.25,0.39,0.49L61.06,72.65z"/>
	<path d="M60.18,81.78c0-0.04,0-0.08,0.01-0.13c0.01-0.27,0.03-0.48,0.13-0.67c0.01-0.03,0.03-0.06,0.03-0.08
		c0.07-0.35,0.24-0.66,0.39-0.98c0.08-0.17,0.14-0.34,0.18-0.52c0.01-0.08,0.04-0.17,0.08-0.25c0.18-0.42,0.35-0.84,0.53-1.25
		c0.15-0.34,0.28-0.69,0.39-1.04l0.21-0.59c0.06-0.14,0.11-0.28,0.15-0.43c0.14-0.5,0.35-0.98,0.55-1.47
		c0.18-0.43,0.39-0.85,0.59-1.27c0.08-0.15,0.15-0.32,0.21-0.49c0.03-0.08,0.07-0.15,0.13-0.22c0.13-0.2,0.22-0.18,0.32,0.01
		l0.17,0.34c0.04,0.06,0.07,0.13,0.1,0.2c0.07,0.29,0.21,0.56,0.28,0.85c0.08,0.27,0.18,0.53,0.29,0.78l0.25,0.59l0.46,1.13
		l0.08,0.2c0.2,0.36,0.36,0.74,0.49,1.13c0.1,0.25,0.18,0.5,0.25,0.77c0.07,0.28,0.18,0.55,0.32,0.78c0.06,0.1,0.11,0.2,0.15,0.31
		c0.1,0.27,0.21,0.52,0.35,0.77c0.15,0.27,0.25,0.56,0.28,0.87c0.01,0.07,0.03,0.14,0.06,0.21c0.03,0.08,0,0.17-0.06,0.24
		c-0.04,0.06-0.1,0.08-0.17,0.08c-0.07,0-0.14-0.03-0.18-0.07c-0.2-0.21-0.38-0.42-0.46-0.7s-0.2-0.56-0.34-0.81
		c-0.07-0.15-0.14-0.31-0.2-0.48l-0.38-1.09c-0.07-0.18-0.21-0.25-0.39-0.27c-0.08-0.01-0.18,0.01-0.25-0.01
		c-0.14-0.07-0.31-0.06-0.45,0.03c-0.06,0.01-0.11,0.01-0.17,0c-0.5-0.06-1.01-0.06-1.51-0.01h-0.04c-0.11-0.01-0.22-0.01-0.34-0.01
		c-0.11,0.01-0.22,0.06-0.34,0.08c-0.06,0-0.11,0-0.17-0.01c-0.08-0.01-0.17,0.04-0.2,0.13l-0.21,0.5l-0.04,0.13
		c-0.11,0.22-0.21,0.46-0.29,0.7c-0.11,0.24-0.2,0.49-0.25,0.76c-0.03,0.11-0.07,0.22-0.13,0.32c-0.07,0.15-0.13,0.32-0.15,0.49
		c-0.03,0.22-0.14,0.42-0.21,0.63c-0.03,0.08-0.11,0.14-0.2,0.14c-0.08,0.01-0.17-0.03-0.21-0.1c-0.04-0.07-0.07-0.15-0.08-0.24
		L60.18,81.78z M63.23,77.1v0.01h0.46c0.13,0,0.25,0.01,0.38,0.04c0.29,0.08,0.59,0.07,0.88,0.06c0.03,0,0.06-0.01,0.08-0.03
		c0.03-0.03,0.06-0.06,0.07-0.1c0-0.06,0-0.11-0.01-0.17c-0.04-0.13-0.07-0.25-0.1-0.38c-0.03-0.13-0.07-0.25-0.13-0.36l-0.15-0.34
		c-0.11-0.25-0.21-0.5-0.34-0.74c-0.08-0.17-0.15-0.34-0.21-0.5L64,74.03c-0.01-0.06-0.03-0.11-0.06-0.17
		c-0.01-0.03-0.04-0.06-0.06-0.06c-0.03,0-0.06,0.01-0.07,0.04c-0.1,0.18-0.18,0.38-0.27,0.57l-0.15,0.34
		c-0.28,0.52-0.5,1.06-0.66,1.64l-0.14,0.41l-0.04,0.17c0,0.06,0.04,0.11,0.1,0.11h0.59L63.23,77.1z"/>
	<path d="M68.55,73.26l-0.07-0.6c-0.01-0.15,0.06-0.29,0.18-0.39l0.21-0.17c0.04-0.03,0.08-0.04,0.13-0.03
		c0.04,0.01,0.08,0.04,0.11,0.08c0.13,0.18,0.21,0.39,0.24,0.6c0,0.11,0,0.22,0.01,0.34c0,0.08,0.01,0.17,0.03,0.25
		c0.15,0.52,0.27,1.05,0.49,1.56c0.04,0.1,0.08,0.2,0.11,0.29c0.08,0.29,0.21,0.59,0.36,0.85c0.04,0.08,0.08,0.17,0.11,0.25
		c0.07,0.18,0.15,0.35,0.25,0.52c0.04,0.07,0.08,0.14,0.11,0.21c0.13,0.36,0.31,0.7,0.41,1.06c0.01,0.06,0.03,0.11,0.06,0.15
		l0.38,0.83c0.11,0.27,0.22,0.53,0.35,0.78c0.03,0.04,0.06,0.08,0.1,0.13c0.01,0.01,0.04,0.01,0.07,0c0.04-0.04,0.07-0.08,0.1-0.13
		c0.17-0.36,0.35-0.71,0.49-1.08l0.14-0.29c0.06-0.14,0.13-0.28,0.17-0.42c0.15-0.49,0.35-0.97,0.59-1.43
		c0.04-0.07,0.07-0.14,0.1-0.21c0.07-0.21,0.17-0.41,0.28-0.59c0.07-0.13,0.13-0.27,0.17-0.41c0.13-0.35,0.27-0.7,0.38-1.06
		c0.17-0.55,0.34-1.09,0.36-1.67c0.01-0.2,0.08-0.38,0.2-0.53c0.03-0.04,0.07-0.07,0.11-0.08c0.04-0.01,0.1,0,0.14,0.03
		c0.1,0.07,0.2,0.14,0.29,0.22s0.14,0.21,0.13,0.34c-0.06,0.41-0.06,0.81-0.15,1.2l-0.08,0.31c-0.03,0.07-0.04,0.15-0.06,0.24
		c-0.01,0.21-0.07,0.42-0.17,0.62c-0.11,0.25-0.2,0.5-0.29,0.76l-0.38,0.98l-0.08,0.13c-0.07,0.13-0.14,0.24-0.2,0.36
		c-0.06,0.17-0.14,0.32-0.24,0.46c-0.03,0.03-0.04,0.07-0.06,0.11c-0.14,0.34-0.27,0.67-0.39,1.01l-0.15,0.38l-0.42,0.84
		c-0.08,0.15-0.15,0.31-0.22,0.48c-0.11,0.25-0.24,0.49-0.36,0.73l-0.08,0.13c-0.22,0.29-0.55,0.22-0.73,0.01
		c-0.06-0.06-0.1-0.13-0.13-0.2c-0.11-0.28-0.29-0.53-0.38-0.83v-0.04c-0.2-0.29-0.29-0.64-0.48-0.94
		c-0.08-0.15-0.15-0.31-0.21-0.48l-0.25-0.67c-0.04-0.1-0.08-0.2-0.11-0.29c-0.04-0.11-0.1-0.22-0.17-0.32
		c-0.06-0.1-0.11-0.2-0.15-0.29c-0.07-0.2-0.17-0.38-0.28-0.55c-0.04-0.06-0.07-0.11-0.08-0.18l-0.27-0.67
		c-0.11-0.38-0.25-0.74-0.42-1.11c-0.03-0.06-0.04-0.13-0.06-0.2c-0.03-0.27-0.11-0.52-0.17-0.78c-0.04-0.2-0.07-0.39-0.1-0.59
		L68.55,73.26z"/>
	<path d="M82.48,75.55c0.1,0.32,0.2,0.64,0.17,0.94c0.01,0.5-0.11,0.94-0.22,1.37c-0.01,0.06-0.04,0.11-0.07,0.15
		c-0.06,0.07-0.08,0.15-0.1,0.24c-0.01,0.36-0.28,0.56-0.55,0.76l-0.13,0.08c-0.29,0.29-0.67,0.35-1.06,0.38
		c-0.14,0.01-0.28,0.06-0.42-0.01c-0.04-0.01-0.08-0.01-0.13,0c-0.04,0.01-0.1,0.01-0.15,0.01c-0.27-0.04-0.53,0.01-0.8,0.01
		c-0.24-0.01-0.46-0.06-0.69-0.13c-0.17-0.04-0.27-0.18-0.39-0.28c-0.14-0.11-0.28-0.24-0.41-0.38c-0.14-0.15-0.21-0.34-0.29-0.53
		c-0.15-0.38-0.28-0.76-0.38-1.15c-0.11-0.36-0.11-0.76,0-1.12l0.15-0.52c0.03-0.11,0.08-0.21,0.15-0.29
		c0.18-0.24,0.35-0.49,0.49-0.74c0.13-0.21,0.27-0.42,0.53-0.49c0.01,0,0.03-0.01,0.04-0.03c0.25-0.24,0.59-0.25,0.9-0.32
		c0.11-0.01,0.22,0,0.34,0.03c0.27,0.03,0.53-0.01,0.8-0.01c0.34,0,0.66,0.1,0.94,0.28c0.2,0.13,0.36,0.31,0.49,0.52l0.04,0.07
		c0.2,0.17,0.28,0.42,0.46,0.6c0.15,0.17,0.2,0.38,0.27,0.57L82.48,75.55z M81.87,76.82c0.07-0.35,0.03-0.71-0.11-1.04
		c-0.13-0.28-0.36-0.49-0.55-0.74c-0.25-0.15-0.46-0.36-0.7-0.55c-0.21-0.15-0.45-0.21-0.67-0.29c-0.06-0.01-0.13-0.01-0.18,0
		c-0.17,0.03-0.34,0.08-0.49,0.17c-0.22,0.13-0.43,0.28-0.66,0.42c-0.08,0.06-0.15,0.13-0.21,0.21c-0.13,0.17-0.24,0.35-0.38,0.52
		c-0.1,0.11-0.18,0.24-0.24,0.38c-0.08,0.22-0.07,0.45-0.07,0.67c-0.01,0.32,0,0.64,0.18,0.92c0.1,0.15,0.22,0.29,0.34,0.45
		c0.21,0.29,0.5,0.48,0.8,0.66c0.06,0.03,0.13,0.04,0.2,0.04c0.32,0.04,0.66,0.04,0.99,0.01c0.14,0,0.28-0.03,0.41-0.08
		c0.28-0.14,0.53-0.32,0.74-0.55c0.32-0.35,0.55-0.77,0.64-1.23L81.87,76.82z"/>
	<path d="M88.59,81.43h-0.76c-0.25-0.01-0.5,0-0.76,0.06c-0.08,0.01-0.17,0.01-0.25,0.01c-0.18,0-0.36,0.01-0.55,0.06
		c-0.11,0.03-0.22,0.03-0.34,0c-0.28-0.08-0.53,0.01-0.78,0.1c-0.04,0.01-0.08,0.03-0.13,0.06c-0.15,0.07-0.27,0.03-0.36-0.11
		c-0.08-0.11-0.13-0.25-0.13-0.39c0-0.08-0.01-0.17-0.04-0.25c-0.07-0.18-0.1-0.38-0.08-0.57c0-0.43-0.01-0.87,0-1.3
		c0.01-0.35-0.01-0.7-0.08-1.05c-0.01-0.11-0.01-0.22,0-0.34c0.01-0.22,0.01-0.45-0.01-0.67c-0.01-0.17-0.01-0.34-0.01-0.5
		c-0.01-0.41,0-0.81-0.07-1.22c-0.03-0.18-0.03-0.36,0-0.55c0.03-0.2,0.04-0.39,0.04-0.59c0-0.21,0.01-0.42,0.01-0.63
		c0.01-0.22,0.06-0.45,0.11-0.67c0.04-0.17,0.15-0.31,0.31-0.38c0.04-0.01,0.08,0,0.11,0.03c0.04,0.07,0.08,0.14,0.11,0.22
		c0.07,0.28,0.13,0.56,0.06,0.84c-0.03,0.1-0.04,0.2-0.04,0.29v1.68c0.11,0.57,0.06,1.15,0.07,1.72c0.01,0.36,0.01,0.73,0.01,1.09
		c0,0.11,0.01,0.22,0.03,0.34c0.01,0.07,0.03,0.14,0.03,0.21c-0.06,0.22,0.04,0.45,0.03,0.67c-0.01,0.22,0,0.45,0,0.67
		c0,0.11,0.07,0.17,0.2,0.18h0.08c0.24-0.06,0.48-0.04,0.71-0.06c0.25,0,0.5-0.01,0.76-0.06c0.11-0.01,0.22-0.01,0.34-0.01h0.97
		c0.11,0,0.22,0.01,0.34,0.03c0.1,0.01,0.2,0.01,0.29,0c0.45-0.07,0.87,0.04,1.27,0.21c0.07,0.03,0.13,0.08,0.15,0.15
		c0.03,0.07,0.03,0.15,0,0.22c-0.01,0.06-0.04,0.11-0.07,0.17c-0.17,0.28-0.17,0.39-0.63,0.35c-0.35-0.03-0.7-0.01-1.05-0.03
		L88.59,81.43z"/>
	<path d="M90.74,81.78c0-0.04,0-0.08,0.01-0.13c0.01-0.27,0.03-0.48,0.13-0.67c0.01-0.03,0.03-0.06,0.03-0.08
		c0.07-0.35,0.24-0.66,0.39-0.98c0.08-0.17,0.14-0.34,0.18-0.52c0.01-0.08,0.04-0.17,0.08-0.25c0.18-0.42,0.35-0.84,0.53-1.25
		c0.15-0.34,0.28-0.69,0.39-1.04l0.21-0.59c0.06-0.14,0.11-0.28,0.15-0.43c0.14-0.5,0.35-0.98,0.55-1.47
		c0.18-0.43,0.39-0.85,0.59-1.27c0.08-0.15,0.15-0.32,0.21-0.49c0.03-0.08,0.07-0.15,0.13-0.22c0.13-0.2,0.22-0.18,0.32,0.01
		l0.17,0.34c0.04,0.06,0.07,0.13,0.1,0.2c0.07,0.29,0.21,0.56,0.28,0.85c0.08,0.27,0.18,0.53,0.29,0.78l0.25,0.59l0.46,1.13
		l0.08,0.2c0.2,0.36,0.36,0.74,0.49,1.13c0.1,0.25,0.18,0.5,0.25,0.77c0.07,0.28,0.18,0.55,0.32,0.78c0.06,0.1,0.11,0.2,0.15,0.31
		c0.1,0.27,0.21,0.52,0.35,0.77c0.15,0.27,0.25,0.56,0.28,0.87c0.01,0.07,0.03,0.14,0.06,0.21c0.03,0.08,0,0.17-0.06,0.24
		c-0.04,0.06-0.1,0.08-0.17,0.08c-0.07,0-0.14-0.03-0.18-0.07c-0.2-0.21-0.38-0.42-0.46-0.7s-0.2-0.56-0.34-0.81
		c-0.07-0.15-0.14-0.31-0.2-0.48l-0.38-1.09c-0.07-0.18-0.21-0.25-0.39-0.27c-0.08-0.01-0.18,0.01-0.25-0.01
		c-0.14-0.07-0.31-0.06-0.45,0.03c-0.06,0.01-0.11,0.01-0.17,0c-0.5-0.06-1.01-0.06-1.51-0.01H93.6c-0.11-0.01-0.22-0.01-0.34-0.01
		c-0.11,0.01-0.22,0.06-0.34,0.08c-0.06,0-0.11,0-0.17-0.01c-0.08-0.01-0.17,0.04-0.2,0.13l-0.21,0.5l-0.04,0.13
		c-0.11,0.22-0.21,0.46-0.29,0.7c-0.11,0.24-0.2,0.49-0.25,0.76c-0.03,0.11-0.07,0.22-0.13,0.32c-0.07,0.15-0.13,0.32-0.15,0.49
		c-0.03,0.22-0.14,0.42-0.21,0.63c-0.03,0.08-0.11,0.14-0.2,0.14c-0.08,0.01-0.17-0.03-0.21-0.1c-0.04-0.07-0.07-0.15-0.08-0.24
		L90.74,81.78z M93.79,77.1v0.01h0.46c0.13,0,0.25,0.01,0.38,0.04c0.29,0.08,0.59,0.07,0.88,0.06c0.03,0,0.06-0.01,0.08-0.03
		c0.03-0.03,0.06-0.06,0.07-0.1c0-0.06,0-0.11-0.01-0.17c-0.04-0.13-0.07-0.25-0.1-0.38c-0.03-0.13-0.07-0.25-0.13-0.36l-0.15-0.34
		c-0.11-0.25-0.21-0.5-0.34-0.74c-0.08-0.17-0.15-0.34-0.21-0.5l-0.17-0.56c-0.01-0.06-0.03-0.11-0.06-0.17
		c-0.01-0.03-0.04-0.06-0.06-0.06c-0.03,0-0.06,0.01-0.07,0.04c-0.1,0.18-0.18,0.38-0.27,0.57l-0.15,0.34
		c-0.28,0.52-0.5,1.06-0.66,1.64l-0.14,0.41l-0.04,0.17c0,0.06,0.04,0.11,0.1,0.11h0.59L93.79,77.1z"/>
	<path d="M104.8,79.62c0.01,0.14,0,0.28-0.03,0.42c-0.01,0.04-0.01,0.08,0,0.13c0.07,0.22,0,0.43-0.06,0.63
		c-0.11,0.42-0.22,0.84-0.42,1.23c-0.01,0.04-0.03,0.08-0.06,0.13c-0.17,0.2-0.27,0.43-0.42,0.64c-0.1,0.14-0.2,0.27-0.36,0.32
		c-0.06,0.03-0.1,0.06-0.14,0.1c-0.13,0.08-0.27,0.17-0.39,0.27c-0.15,0.1-0.34,0.15-0.52,0.15c-0.15,0.03-0.31-0.03-0.41-0.15
		l-0.13-0.17c-0.14-0.24-0.08-0.42,0.17-0.55c0.11-0.06,0.24-0.1,0.36-0.11c0.22-0.01,0.43-0.13,0.59-0.29
		c0.32-0.21,0.48-0.55,0.64-0.88c0.22-0.45,0.32-0.94,0.42-1.43c0.03-0.17,0-0.35,0.04-0.52c0.04-0.2,0.01-0.39,0.03-0.59
		c0.01-0.13-0.01-0.25-0.01-0.38c0-0.2-0.04-0.39,0.01-0.59c0-0.03,0-0.06-0.01-0.08c-0.07-0.25-0.04-0.5-0.04-0.76
		c-0.01-0.6-0.03-1.21-0.03-1.81c0-0.29,0.01-0.59,0.01-0.88v-1.77c0-0.1,0.01-0.2,0.03-0.29c0.04-0.17,0.15-0.31,0.31-0.39
		c0.03-0.01,0.07-0.01,0.1,0c0.03,0.01,0.06,0.04,0.07,0.07c0.06,0.1,0.08,0.21,0.08,0.32c0,0.14,0.01,0.28,0.04,0.42
		c0.01,0.11,0.03,0.22,0.03,0.34v1.6c0,0.07,0,0.14,0.01,0.21c0.08,0.35,0.06,0.7,0.06,1.05c0.01,0.52,0.01,1.04,0.01,1.55V79.62z"
		/>
	<path d="M112.68,74.37c0.01,0.1,0.01,0.2,0,0.29l-0.21,1.01c-0.04,0.22-0.14,0.43-0.28,0.62l-0.11,0.13
		c-0.25,0.2-0.49,0.42-0.76,0.6l-0.08,0.04c-0.35,0.1-0.66,0.31-1.02,0.38c-0.11,0.01-0.22,0.04-0.32,0.08
		c-0.24,0.13-0.5,0.18-0.77,0.17c-0.13,0-0.25,0.03-0.38,0.07c-0.2,0.07-0.41,0.11-0.62,0.11c-0.04,0-0.08,0-0.13,0.01
		c-0.08,0.03-0.15,0.1-0.17,0.18v0.17c-0.01,0.49-0.03,0.98-0.03,1.47c0,0.1,0.01,0.2,0.04,0.29c0.06,0.2,0.08,0.39,0.08,0.59
		l0.04,0.71c0.01,0.11,0.01,0.22-0.01,0.34c-0.03,0.08-0.08,0.15-0.15,0.2c-0.06,0.04-0.13,0.06-0.2,0.04
		c-0.17-0.03-0.31-0.14-0.38-0.29c-0.04-0.07-0.07-0.15-0.07-0.24c-0.03-0.42-0.08-0.84-0.15-1.26v-0.04
		c-0.01-0.15,0.04-0.31,0-0.46c-0.03-0.15-0.03-0.31,0-0.46l0.03-0.55c0-0.07,0-0.14-0.01-0.21c-0.06-0.35-0.07-0.7-0.06-1.05
		c0.01-0.31,0.01-0.62,0.01-0.92c0-0.08,0-0.17,0.01-0.25c0.06-0.28,0.07-0.56,0.04-0.84c0-0.1-0.01-0.2,0-0.29
		c0.04-0.52,0-1.04,0.01-1.55c0-0.1-0.01-0.2-0.01-0.29c0-0.13,0-0.25,0.01-0.38c0.04-0.34,0.25-0.62,0.56-0.74
		c0.21-0.08,0.42-0.15,0.64-0.21c0.11-0.03,0.22-0.04,0.34-0.04h0.38c0.59-0.01,1.18,0.07,1.74,0.25c0.49,0.15,0.94,0.42,1.3,0.78
		c0.22,0.22,0.39,0.49,0.49,0.78c0.08,0.27,0.15,0.55,0.2,0.83L112.68,74.37z M111.87,75.17c0.03-0.24,0.03-0.48,0-0.71
		c-0.04-0.36-0.25-0.69-0.58-0.85c-0.34-0.2-0.71-0.34-1.11-0.41c-0.28-0.07-0.57-0.1-0.87-0.1c-0.24-0.06-0.48-0.03-0.71-0.04
		c-0.24-0.01-0.46,0.06-0.7,0.1c-0.06,0.01-0.1,0.06-0.1,0.11c-0.01,0.06-0.01,0.11-0.01,0.17v1.68h0.01c0,0.1-0.01,0.2-0.01,0.29
		v1.51c0,0.03,0.01,0.06,0.04,0.07c0.03,0.01,0.06,0.01,0.08,0l0.21-0.13c0.2-0.11,0.42-0.17,0.64-0.15c0.1,0.01,0.2,0.01,0.29,0
		c0.32-0.06,0.63-0.14,0.94-0.24c0.2-0.08,0.39-0.15,0.6-0.21c0.34-0.08,0.62-0.28,0.88-0.49c0.21-0.15,0.34-0.39,0.36-0.64
		L111.87,75.17z"/>
</g>
</svg>
